{"title":"Mass Effect 3 (Take Earth Back Cinematic Trailer)","uid":7322978,"size":101924922,"categoryP":"video","categoryS":"other","magnet":"?xt=urn:btih:23e99c2ae516068951e8697b7f92b2c74a2691cc&amp;dn=Mass+Effect+3+%28Take+Earth+Back+Cinematic+Trailer%29&amp;tr=udp%3A%2F%2Ftracker.openbittorrent.com%3A80&amp;tr=udp%3A%2F%2Fopen.demonii.com%3A1337&amp;tr=udp%3A%2F%2Ftracker.coppersurfer.tk%3A6969&amp;tr=udp%3A%2F%2Fexodus.desync.com%3A6969","seeders":1,"leechers":0,"uploader":null,"files":-1,"time":1338671558,"description":"The war for Earth has begun. An unstoppable alien threat, known as the Reapers has invaded and you are the only one who can save Earth from annihilation. See the battle begin first hand in this action-packed cinematic trailer.\n\nDuration: 00:03:34.95, start: 0.000000, bitrate: 3793 kb/s\n  Stream #0:0(und): Video: h264 (High) (avc1 / 0x31637661), yuv420p, 1920x1080, 3640 kb/s, 24 fps, 24 tbr, 48 tbn, 48 tbc\n  Stream #0:1(und): Audio: aac (mp4a / 0x6134706D), 44100 Hz, stereo, s16, 147 kb/s","torrent":{"xt":"urn:btih:23e99c2ae516068951e8697b7f92b2c74a2691cc","amp;dn":"Mass+Effect+3+%28Take+Earth+Back+Cinematic+Trailer%29","amp;tr":["udp%3A%2F%2Ftracker.openbittorrent.com%3A80","udp%3A%2F%2Fopen.demonii.com%3A1337","udp%3A%2F%2Ftracker.coppersurfer.tk%3A6969","udp%3A%2F%2Fexodus.desync.com%3A6969"],"infoHash":"23e99c2ae516068951e8697b7f92b2c74a2691cc","infoHashBuffer":{"type":"Buffer","data":[35,233,156,42,229,22,6,137,81,232,105,123,127,146,178,199,74,38,145,204]},"announce":[],"urlList":[]}}